<mxfile host="app.diagrams.net" modified="2023-07-08T04:57:47.437Z" agent="Mozilla/5.0 (X11; Linux x86_64) AppleWebKit/537.36 (KHTML, like Gecko) Chrome/114.0.0.0 Safari/537.36" etag="akrcGjHXe1dMqUReYkfa" version="21.6.1" type="github">
  <diagram id="B-l9Juz3E8CRRNdyRUjM" name="Page-1">
    <mxGraphModel dx="1364" dy="775" grid="1" gridSize="10" guides="1" tooltips="1" connect="1" arrows="1" fold="1" page="1" pageScale="1" pageWidth="827" pageHeight="1169" math="0" shadow="0">
      <root>
        <mxCell id="0" />
        <mxCell id="1" parent="0" />
        <mxCell id="xnujD52PgQDPHaPjtpfM-1" value="cli" style="rounded=0;whiteSpace=wrap;html=1;" parent="1" vertex="1">
          <mxGeometry x="40" y="500" width="400" height="60" as="geometry" />
        </mxCell>
        <mxCell id="xnujD52PgQDPHaPjtpfM-2" value="core" style="rounded=0;whiteSpace=wrap;html=1;" parent="1" vertex="1">
          <mxGeometry x="40" y="580" width="540" height="60" as="geometry" />
        </mxCell>
        <mxCell id="xnujD52PgQDPHaPjtpfM-3" value="commands" style="rounded=0;whiteSpace=wrap;html=1;" parent="1" vertex="1">
          <mxGeometry x="40" y="420" width="400" height="60" as="geometry" />
        </mxCell>
        <mxCell id="xnujD52PgQDPHaPjtpfM-4" value="configuration" style="rounded=0;whiteSpace=wrap;html=1;" parent="1" vertex="1">
          <mxGeometry x="40" y="340" width="120" height="60" as="geometry" />
        </mxCell>
        <mxCell id="xnujD52PgQDPHaPjtpfM-5" value="json-rpc-ws" style="rounded=0;whiteSpace=wrap;html=1;" parent="1" vertex="1">
          <mxGeometry x="40" y="660" width="540" height="60" as="geometry" />
        </mxCell>
        <mxCell id="xnujD52PgQDPHaPjtpfM-6" value="storage" style="rounded=0;whiteSpace=wrap;html=1;" parent="1" vertex="1">
          <mxGeometry x="460" y="500" width="120" height="60" as="geometry" />
        </mxCell>
        <mxCell id="xnujD52PgQDPHaPjtpfM-7" value="pm" style="rounded=0;whiteSpace=wrap;html=1;" parent="1" vertex="1">
          <mxGeometry x="180" y="340" width="120" height="60" as="geometry" />
        </mxCell>
        <mxCell id="xnujD52PgQDPHaPjtpfM-8" value="server" style="rounded=0;whiteSpace=wrap;html=1;" parent="1" vertex="1">
          <mxGeometry x="320" y="340" width="120" height="60" as="geometry" />
        </mxCell>
        <mxCell id="xnujD52PgQDPHaPjtpfM-9" value="tacl" style="rounded=0;whiteSpace=wrap;html=1;" parent="1" vertex="1">
          <mxGeometry x="600" y="660" width="120" height="60" as="geometry" />
        </mxCell>
      </root>
    </mxGraphModel>
  </diagram>
</mxfile>
